<?xml version="1.0" encoding="utf-8"?>
<!-- Generator: Adobe Illustrator 20.0.0, SVG Export Plug-In . SVG Version: 6.00 Build 0)  -->
<svg version="1.1" id="Layer_1" xmlns="http://www.w3.org/2000/svg" xmlns:xlink="http://www.w3.org/1999/xlink" x="0px" y="0px"
	 viewBox="0 0 601.7 166.4" style="enable-background:new 0 0 601.7 166.4;" xml:space="preserve">
<style type="text/css">
	.st0{fill:#010101;}
	.st1{fill:#CBCBCB;}
	.st2{fill:url(#SVGID_1_);}
	.st3{fill:#4BA8D5;}
	.st4{fill:url(#SVGID_2_);}
	.st5{fill:url(#SVGID_3_);}
	.st6{fill:url(#SVGID_4_);}
	.st7{fill:#F57F20;}
	.st8{fill:#F15722;}
	.st9{fill:url(#SVGID_5_);}
</style>
<g>
	<path class="st0" d="M217.6,80.8v-0.2c0-16,11.9-29.2,28.2-29.2c9.4,0,15.2,3.2,20.7,7.9c0.4,0.4,0.8,1,0.8,1.7
		c0,1.1-1,2.1-2.2,2.1c-0.6,0-1.1-0.2-1.5-0.6c-4.7-4.3-10.1-7.3-18-7.3c-13.6,0-23.8,11.1-23.8,25.3v0.2
		c0,14.3,10.4,25.4,23.9,25.4c7.7,0,13.1-2.7,18.4-7.8c0.3-0.3,0.8-0.6,1.5-0.6c1,0,2,1,2,2c0,0.6-0.3,1.1-0.6,1.5
		c-5.7,5.3-11.9,8.8-21.4,8.8C229.5,109.8,217.6,97,217.6,80.8z"/>
	<path class="st0" d="M294.7,54.2c0-1.1,1-2.1,2.1-2.1s2.1,1,2.1,2.1v52.9c0,1.1-1,2.1-2.1,2.1s-2.1-1-2.1-2.1V54.2z"/>
	<path class="st0" d="M330.8,54.2c0-1.1,1-2.1,2.1-2.1c1.1,0,2.1,1,2.1,2.1v35.3l35.7-36.8c0.3-0.3,0.8-0.6,1.5-0.6
		c1,0,2.1,1,2.1,2.1c0,0.6-0.2,1-0.6,1.5L352,77.3l23,28.2c0.4,0.5,0.6,0.9,0.6,1.5c0,1.1-1,2.2-2.2,2.2c-0.7,0-1.3-0.4-1.6-0.8
		L349,80.3l-14,14.2v12.6c0,1.1-1,2.1-2.1,2.1c-1.1,0-2.1-1-2.1-2.1V54.2z"/>
	<path class="st0" d="M403,54.2c0-1.1,1-2.1,2.1-2.1c1.1,0,2.1,1,2.1,2.1V105h31.5c1,0,1.9,0.9,1.9,1.9c0,1-0.9,1.9-1.9,1.9h-33.6
		c-1.1,0-2.1-1-2.1-2.1V54.2z"/>
	<path class="st0" d="M460.1,85.4V54.2c0-1.1,1-2.1,2.1-2.1c1.1,0,2.1,1,2.1,2.1V85c0,13.3,7.2,21,19.1,21
		c11.5,0,18.8-6.9,18.8-20.6V54.2c0-1.1,1-2.1,2.1-2.1c1.1,0,2.1,1,2.1,2.1v30.7c0,16.2-9.4,24.8-23.2,24.8
		C469.7,109.8,460.1,101.2,460.1,85.4z"/>
	<path class="st0" d="M535.2,54.3c0-1.1,1-2.1,2.1-2.1h0.4c0.9,0,1.5,0.5,2.1,1.2l22,32.4l22-32.4c0.5-0.7,1.2-1.2,2.1-1.2h0.4
		c1.1,0,2.1,1,2.1,2.1v52.8c0,1.1-1,2.1-2.1,2.1c-1.1,0-2.1-1-2.1-2.1V59.8L563.5,90c-0.5,0.7-1,1-1.8,1c-0.7,0-1.3-0.3-1.8-1
		l-20.7-30.2v47.4c0,1.1-0.9,2-2,2c-1.1,0-2-0.9-2-2V54.3z"/>
</g>
<g>
	<ellipse class="st1" cx="86.4" cy="83.4" rx="78.2" ry="78.2"/>
	<g>
		<linearGradient id="SVGID_1_" gradientUnits="userSpaceOnUse" x1="6.2905" y1="81.5415" x2="162.6431" y2="81.5415">
			<stop  offset="0" style="stop-color:#F3F3F3"/>
			<stop  offset="1" style="stop-color:#E4E4E4"/>
		</linearGradient>
		<ellipse class="st2" cx="84.5" cy="81.5" rx="78.2" ry="78.2"/>
	</g>
	<g>
		<g>
			<path class="st3" d="M87,116.8c-19.3,1.3-36.1-13.3-37.4-32.5c-1.2-16.6,9.5-31.3,24.7-36l-4.3-14.1
				c-21.7,6.6-36.8,27.6-35.1,51.2c1.9,27.4,25.8,48.2,53.2,46.3c3.8-0.3,7.6-1,11.1-2.1l-4.3-14.1C92.3,116.1,89.7,116.6,87,116.8z
				"/>
			<linearGradient id="SVGID_2_" gradientUnits="userSpaceOnUse" x1="44.2428" y1="51.587" x2="57.5779" y2="64.9221">
				<stop  offset="0" style="stop-color:#4BA8D5"/>
				<stop  offset="1" style="stop-color:#033840"/>
			</linearGradient>
			<path class="st4" d="M34.8,85.3c-1.2-16.6,24.2-32.4,39.5-37l-4.3-14.1C48.2,40.7,33.1,61.7,34.8,85.3"/>
		</g>
		<g>
			<linearGradient id="SVGID_3_" gradientUnits="userSpaceOnUse" x1="51.5888" y1="86.5989" x2="107.6206" y2="86.5989">
				<stop  offset="0" style="stop-color:#6A587C"/>
				<stop  offset="1" style="stop-color:#302736"/>
			</linearGradient>
			<path class="st5" d="M61.2,105c12.8,12.8,33.6,12.8,46.4,0.1l-7.7-7.7c-8.6,8.4-22.4,8.4-30.9-0.1c-8.5-8.5-8.6-22.4-0.1-30.9
				l-7.7-7.7C48.4,71.4,48.4,92.2,61.2,105z"/>
			<linearGradient id="SVGID_4_" gradientUnits="userSpaceOnUse" x1="50.8163" y1="78.0263" x2="68.658" y2="84.5202">
				<stop  offset="0" style="stop-color:#6A587C"/>
				<stop  offset="0.1736" style="stop-color:#5B4B69"/>
				<stop  offset="0.4223" style="stop-color:#483B52"/>
				<stop  offset="0.6513" style="stop-color:#3B3043"/>
				<stop  offset="0.8512" style="stop-color:#33293A"/>
				<stop  offset="1" style="stop-color:#302736"/>
			</linearGradient>
			<path class="st6" d="M61.2,105c-8.5-8.5-0.8-30.1,7.6-38.7l-7.7-7.7C48.4,71.4,48.4,92.2,61.2,105"/>
		</g>
		<g>
			<path class="st7" d="M11,81.8c0,18.8,7.2,37.7,21.5,52c28.7,28.7,75.4,28.7,104.1,0l-15.2-15.2l0,0c-20.3,20.3-53.3,20.3-73.6,0
				c-10.1-10.1-15.2-23.5-15.2-36.8H11z"/>
			<g>
				<path class="st8" d="M47.7,45C68,24.8,101,24.8,121.3,45l15.2-15.2c-29-29-74.6-29.4-104.1,0C18.1,44.2,11,63,11,81.8h21.5
					C32.5,68.5,37.6,55.2,47.7,45z"/>
				<linearGradient id="SVGID_5_" gradientUnits="userSpaceOnUse" x1="93.0374" y1="6.3851" x2="78.4247" y2="46.5333">
					<stop  offset="0" style="stop-color:#F15722"/>
					<stop  offset="1" style="stop-color:#8E3C1E"/>
				</linearGradient>
				<path class="st9" d="M32.5,29.8C52.8,9.5,101,24.8,121.3,45l15.2-15.2C107.5,0.8,61.9,0.4,32.5,29.8"/>
			</g>
		</g>
	</g>
</g>
<g>
	<path class="st0" d="M227.5,133.3h-6.2v2.9h5.5v1.7h-5.5v2.9h6.3v1.7h-8.2v-11h8.1V133.3z"/>
	<path class="st0" d="M239.9,139.9L239.9,139.9l-3.5-5.1v7.8h-1.9v-11h2.1l3.3,5.2l3.3-5.2h2.1v11h-1.9v-7.9L239.9,139.9z"/>
	<path class="st0" d="M256.9,139h-2.2v3.5h-1.9v-11h4.3c2.6,0,4.2,1.4,4.2,3.7C261.3,137.7,259.3,139,256.9,139z M257,133.3h-2.2
		v3.9h2.2c1.5,0,2.4-0.8,2.4-2C259.4,134,258.4,133.3,257,133.3z"/>
	<path class="st0" d="M273.2,142.7c-3.4,0-5.7-2.6-5.7-5.7c0-3.1,2.4-5.7,5.8-5.7c3.4,0,5.7,2.6,5.7,5.7
		C279,140.2,276.6,142.7,273.2,142.7z M273.2,133.2c-2.2,0-3.7,1.7-3.7,3.9c0,2.1,1.6,3.9,3.7,3.9c2.2,0,3.7-1.7,3.7-3.9
		C276.9,134.9,275.4,133.2,273.2,133.2z"/>
	<path class="st0" d="M292,131.6h1.6l2.7,8.2l2.6-8.1h2l-3.8,11.1h-1.7l-2.7-7.9l-2.7,7.9h-1.7l-3.8-11.1h2.1l2.6,8.1L292,131.6z"/>
	<path class="st0" d="M315.7,133.3h-6.2v2.9h5.5v1.7h-5.5v2.9h6.3v1.7h-8.2v-11h8.1V133.3z"/>
	<path class="st0" d="M329.8,142.6l-2.7-3.8h-2.4v3.8h-1.9v-11h4.9c2.5,0,4.1,1.3,4.1,3.5c0,1.8-1.1,2.9-2.6,3.3l3,4.2H329.8z
		 M327.5,133.3h-2.8v3.7h2.8c1.4,0,2.3-0.7,2.3-1.8C329.8,134,328.9,133.3,327.5,133.3z"/>
	<path class="st0" d="M340.8,131.6v11h-1.9v-11H340.8z"/>
	<path class="st0" d="M356.1,131.6h1.9v11h-1.6l-6-7.8v7.8h-1.9v-11h1.8l5.9,7.6V131.6z"/>
	<path class="st0" d="M370.7,142.7c-3.4,0-5.7-2.4-5.7-5.7c0-3.1,2.4-5.7,5.7-5.7c1.9,0,3.1,0.5,4.2,1.5l-1.2,1.5
		c-0.8-0.7-1.7-1.2-3.1-1.2c-2,0-3.6,1.8-3.6,3.9c0,2.3,1.5,3.9,3.7,3.9c1,0,2-0.3,2.6-0.8v-2.1h-2.8v-1.7h4.7v4.6
		C374.2,142,372.7,142.7,370.7,142.7z"/>
	<path class="st0" d="M397,142.7c-3.2,0-5.6-2.5-5.6-5.7c0-3.1,2.3-5.7,5.7-5.7c2,0,3.2,0.7,4.3,1.7l-1.2,1.4
		c-0.9-0.8-1.8-1.4-3.1-1.4c-2.1,0-3.6,1.7-3.6,3.9c0,2.2,1.5,3.9,3.6,3.9c1.3,0,2.2-0.5,3.2-1.4l1.2,1.3
		C400.3,142,399.1,142.7,397,142.7z"/>
	<path class="st0" d="M413.1,142.7c-3.4,0-5.7-2.6-5.7-5.7c0-3.1,2.4-5.7,5.8-5.7c3.4,0,5.7,2.6,5.7,5.7
		C418.9,140.2,416.5,142.7,413.1,142.7z M413.1,133.2c-2.2,0-3.7,1.7-3.7,3.9c0,2.1,1.6,3.9,3.7,3.9c2.2,0,3.7-1.7,3.7-3.9
		C416.8,134.9,415.3,133.2,413.1,133.2z"/>
	<path class="st0" d="M425.9,131.6h1.9v9.2h5.8v1.8h-7.7V131.6z"/>
	<path class="st0" d="M440.3,131.6h1.9v9.2h5.8v1.8h-7.7V131.6z"/>
	<path class="st0" d="M465.2,142.6h-2l-1.1-2.6h-5.2l-1.1,2.6h-2l4.8-11.1h1.8L465.2,142.6z M459.4,133.8l-1.9,4.4h3.8L459.4,133.8z
		"/>
	<path class="st0" d="M480.3,134.4c0,1.3-0.8,2-1.6,2.5c1.3,0.4,2.2,1.2,2.2,2.7c0,2-1.6,3-4.1,3h-5.1v-11h4.9
		C478.9,131.6,480.3,132.7,480.3,134.4z M478.3,134.7c0-0.9-0.7-1.4-1.9-1.4h-2.8v2.9h2.6C477.5,136.2,478.3,135.7,478.3,134.7z
		 M479,139.3c0-0.9-0.7-1.5-2.3-1.5h-3.1v3h3.2C478.2,140.9,479,140.3,479,139.3z"/>
	<path class="st0" d="M493,142.7c-3.4,0-5.7-2.6-5.7-5.7c0-3.1,2.4-5.7,5.8-5.7c3.4,0,5.7,2.6,5.7,5.7
		C498.7,140.2,496.4,142.7,493,142.7z M493,133.2c-2.2,0-3.7,1.7-3.7,3.9c0,2.1,1.6,3.9,3.7,3.9c2.2,0,3.7-1.7,3.7-3.9
		C496.7,134.9,495.2,133.2,493,133.2z"/>
	<path class="st0" d="M512.8,142.6l-2.7-3.8h-2.4v3.8h-1.9v-11h4.9c2.5,0,4.1,1.3,4.1,3.5c0,1.8-1.1,2.9-2.6,3.3l3,4.2H512.8z
		 M510.5,133.3h-2.8v3.7h2.8c1.4,0,2.3-0.7,2.3-1.8C512.8,134,511.9,133.3,510.5,133.3z"/>
	<path class="st0" d="M532.3,142.6h-2l-1.1-2.6H524l-1.1,2.6h-2l4.8-11.1h1.8L532.3,142.6z M526.5,133.8l-1.9,4.4h3.8L526.5,133.8z"
		/>
	<path class="st0" d="M542.1,142.6h-1.9v-9.2h-3.5v-1.8h8.9v1.8h-3.5V142.6z"/>
	<path class="st0" d="M554.3,131.6v11h-1.9v-11H554.3z"/>
	<path class="st0" d="M567.2,142.7c-3.4,0-5.7-2.6-5.7-5.7c0-3.1,2.4-5.7,5.8-5.7c3.4,0,5.7,2.6,5.7,5.7
		C573,140.2,570.6,142.7,567.2,142.7z M567.2,133.2c-2.2,0-3.7,1.7-3.7,3.9c0,2.1,1.6,3.9,3.7,3.9c2.2,0,3.7-1.7,3.7-3.9
		C570.9,134.9,569.4,133.2,567.2,133.2z"/>
	<path class="st0" d="M587.6,131.6h1.9v11h-1.6l-6-7.8v7.8H580v-11h1.8l5.9,7.6V131.6z"/>
</g>
</svg>
