<svg xmlns="http://www.w3.org/2000/svg" xmlns:xlink="http://www.w3.org/1999/xlink" version="1.1" style="enable-background:new 0 0 601.7 166.4;" xml:space="preserve" width="174.05700958627938" height="167.03626939420803"><rect id="backgroundrect" width="100%" height="100%" x="0" y="0" fill="none" stroke="none"/>
<style type="text/css">
	.st0{fill:#010101;}
	.st1{fill:#CBCBCB;}
	.st2{fill:url(#SVGID_1_);}
	.st3{fill:#4BA8D5;}
	.st4{fill:url(#SVGID_2_);}
	.st5{fill:url(#SVGID_3_);}
	.st6{fill:url(#SVGID_4_);}
	.st7{fill:#F57F20;}
	.st8{fill:#F15722;}
	.st9{fill:url(#SVGID_5_);}
</style>



<g class="currentLayer" style=""><title>Layer 1</title><g id="svg_8" class="">
	<ellipse class="st1" cx="86.4000015258789" cy="83.4000015258789" rx="78.19999694824219" ry="78.19999694824219" id="svg_9"/>
	<g id="svg_10">
		<linearGradient id="SVGID_1_" gradientUnits="userSpaceOnUse" x1="6.290500164031982" y1="81.54149627685547" x2="162.64309692382812" y2="81.54149627685547">
			<stop offset="0" style="stop-color:#F3F3F3"/>
			<stop offset="1" style="stop-color:#E4E4E4"/>
		</linearGradient>
		<ellipse class="st2" cx="84.5" cy="81.5" rx="78.19999694824219" ry="78.19999694824219" id="svg_11"/>
	</g>
	<g id="svg_12">
		<g id="svg_13">
			<path class="st3" d="M87,116.8c-19.3,1.3-36.1-13.3-37.4-32.5c-1.2-16.6,9.5-31.3,24.7-36l-4.3-14.1     c-21.7,6.6-36.8,27.6-35.1,51.2c1.9,27.4,25.8,48.2,53.2,46.3c3.8-0.3,7.6-1,11.1-2.1l-4.3-14.1C92.3,116.1,89.7,116.6,87,116.8z     " id="svg_14"/>
			<linearGradient id="SVGID_2_" gradientUnits="userSpaceOnUse" x1="44.242801666259766" y1="51.58700180053711" x2="57.57789993286133" y2="64.9220962524414">
				<stop offset="0" style="stop-color:#4BA8D5"/>
				<stop offset="1" style="stop-color:#033840"/>
			</linearGradient>
			<path class="st4" d="M34.8,85.3c-1.2-16.6,24.2-32.4,39.5-37l-4.3-14.1C48.2,40.7,33.1,61.7,34.8,85.3" id="svg_15"/>
		</g>
		<g id="svg_16">
			<linearGradient id="SVGID_3_" gradientUnits="userSpaceOnUse" x1="51.58879852294922" y1="86.5988998413086" x2="107.62059783935547" y2="86.5988998413086">
				<stop offset="0" style="stop-color:#6A587C"/>
				<stop offset="1" style="stop-color:#302736"/>
			</linearGradient>
			<path class="st5" d="M61.2,105c12.8,12.8,33.6,12.8,46.4,0.1l-7.7-7.7c-8.6,8.4-22.4,8.4-30.9-0.1c-8.5-8.5-8.6-22.4-0.1-30.9     l-7.7-7.7C48.4,71.4,48.4,92.2,61.2,105z" id="svg_17"/>
			<linearGradient id="SVGID_4_" gradientUnits="userSpaceOnUse" x1="50.81629943847656" y1="78.02629852294922" x2="68.65799713134766" y2="84.52020263671875">
				<stop offset="0" style="stop-color:#6A587C"/>
				<stop offset="0.1736" style="stop-color:#5B4B69"/>
				<stop offset="0.4223" style="stop-color:#483B52"/>
				<stop offset="0.6513" style="stop-color:#3B3043"/>
				<stop offset="0.8512" style="stop-color:#33293A"/>
				<stop offset="1" style="stop-color:#302736"/>
			</linearGradient>
			<path class="st6" d="M61.2,105c-8.5-8.5-0.8-30.1,7.6-38.7l-7.7-7.7C48.4,71.4,48.4,92.2,61.2,105" id="svg_18"/>
		</g>
		<g id="svg_19">
			<path class="st7" d="M11,81.8c0,18.8,7.2,37.7,21.5,52c28.7,28.7,75.4,28.7,104.1,0l-15.2-15.2l0,0c-20.3,20.3-53.3,20.3-73.6,0     c-10.1-10.1-15.2-23.5-15.2-36.8H11z" id="svg_20"/>
			<g id="svg_21">
				<path class="st8" d="M47.7,45C68,24.8,101,24.8,121.3,45l15.2-15.2c-29-29-74.6-29.4-104.1,0C18.1,44.2,11,63,11,81.8h21.5      C32.5,68.5,37.6,55.2,47.7,45z" id="svg_22"/>
				<linearGradient id="SVGID_5_" gradientUnits="userSpaceOnUse" x1="93.03739929199219" y1="6.3850998878479" x2="78.42469787597656" y2="46.53329849243164">
					<stop offset="0" style="stop-color:#F15722"/>
					<stop offset="1" style="stop-color:#8E3C1E"/>
				</linearGradient>
				<path class="st9" d="M32.5,29.8C52.8,9.5,101,24.8,121.3,45l15.2-15.2C107.5,0.8,61.9,0.4,32.5,29.8" id="svg_23"/>
			</g>
		</g>
	</g>
</g></g></svg>